{"title":"American.Horror.Story.Hotel.S05E04.1080p.WEB-DL.DD5.1.H.264-RARB","uid":12651334,"size":1908793084,"categoryP":"video","categoryS":"hd___tv_shows","magnet":"?xt=urn:btih:86097f542950e354b59e8497cc3c4fd475eecc9c&amp;dn=American.Horror.Story.Hotel.S05E04.1080p.WEB-DL.DD5.1.H.264-RARB&amp;tr=udp%3A%2F%2Ftracker.leechers-paradise.org%3A6969&amp;tr=udp%3A%2F%2Fzer0day.ch%3A1337&amp;tr=udp%3A%2F%2Fopen.demonii.com%3A1337&amp;tr=udp%3A%2F%2Ftracker.coppersurfer.tk%3A6969&amp;tr=udp%3A%2F%2Fexodus.desync.com%3A6969","seeders":5,"leechers":1,"uploader":"frostyon420","files":3,"time":1446137597,"description":"\nPhr0stY-Duz-It\r\n\r\n[mediainfo]\r\nVideo\r\nID                          : 1\r\nFormat                      : AVC\r\nFormat/Info                 : Advanced Video Codec\r\nFormat profile              :   \r\nFormat settings, CABAC      : Yes\r\nFormat settings, ReFrames   : 4 frames\r\nCodec ID                    : V_MPEG4/ISO/AVC\r\nDuration                    : 48mn 42s\r\nBit rate                    : 4 737 Kbps\r\nWidth                       : 1 920 pixels\r\nHeight                      : 1 080 pixels\r\nDisplay aspect ratio        : 16:9\r\nFrame rate mode             : Constant\r\nFrame rate                  : 23.976 fps\r\nColor space                 : YUV\r\nChroma subsampling          : 4:2:0\r\nBit depth                   : 8 bits\r\nScan type                   : Progressive\r\nBits/(Pixel*Frame)          : 0.095\r\nStream size                 : 1.61 GiB (91%)\r\nTitle                       : American.Horror.Story.Hotel.S05E04.Devils.Night.1080p.WEB-DL.DD5.1.H.264-RARBG\r\nDefault                     : Yes\r\nForced                      : No\r\nColor primaries             : BT.709\r\nTransfer characteristics    : BT.709\r\nMatrix coefficients         : BT.709\r\nColor range                 : Limited\r\n\r\nAudio\r\nID                          : 2\r\nFormat                      : AC-3\r\nFormat/Info                 : Audio Coding 3\r\nMode extension              : CM (complete main)\r\nFormat settings, Endianness : Big\r\nCodec ID                    : A_AC3\r\nDuration                    : 48mn 42s\r\nBit rate mode               : Constant\r\nBit rate                    : 384 Kbps\r\nChannel(s)                  : 6 channels\r\nChannel positions           : Front: L C R, Side: L R, LFE\r\nSampling rate               : 48.0 KHz\r\nBit depth                   : 16 bits\r\nCompression mode            : Lossy\r\nDelay relative to video     : 26ms\r\nStream size                 : 134 MiB (7%)\r\nTitle                       : American.Horror.Story.Hotel.S05E04.Devils.Night.1080p.WEB-DL.DD5.1.H.264-RARBG\r\nDefault                     : Yes\r\nForced                      : No\r\n\r\nText\r\nID                          : 3\r\nFormat                      : UTF-8\r\nCodec ID                    : S_TEXT/UTF8\r\nCodec ID/Info               : UTF-8 Plain Text\r\nTitle                       : English\r\nLanguage                    : English\r\nDefault                     : No\r\nForced                      : No\r\n\r\n\r\n[/mediainfo]","torrent":{"xt":"urn:btih:86097f542950e354b59e8497cc3c4fd475eecc9c","amp;dn":"American.Horror.Story.Hotel.S05E04.1080p.WEB-DL.DD5.1.H.264-RARB","amp;tr":["udp%3A%2F%2Ftracker.leechers-paradise.org%3A6969","udp%3A%2F%2Fzer0day.ch%3A1337","udp%3A%2F%2Fopen.demonii.com%3A1337","udp%3A%2F%2Ftracker.coppersurfer.tk%3A6969","udp%3A%2F%2Fexodus.desync.com%3A6969"],"infoHash":"86097f542950e354b59e8497cc3c4fd475eecc9c","infoHashBuffer":{"type":"Buffer","data":[134,9,127,84,41,80,227,84,181,158,132,151,204,60,79,212,117,238,204,156]},"announce":[],"urlList":[]}}